<?xml version="1.0" encoding="utf-8"?>
<!-- Generator: Adobe Illustrator 17.1.0, SVG Export Plug-In . SVG Version: 6.00 Build 0)  -->
<!DOCTYPE svg PUBLIC "-//W3C//DTD SVG 1.1//EN" "http://www.w3.org/Graphics/SVG/1.1/DTD/svg11.dtd">
<svg version="1.1" id="Capa_1" xmlns="http://www.w3.org/2000/svg" xmlns:xlink="http://www.w3.org/1999/xlink" x="0px" y="0px"
	 width="485.2px" height="485.2px" viewBox="0 0 485.2 485.2" enable-background="new 0 0 485.2 485.2" xml:space="preserve">
<g>
	<path fill="#131F2A" d="M249.1,236.9c53.7,0,97.3-52.9,97.3-118.2c0-65.3-14.3-118.2-97.3-118.2s-97.3,52.9-97.3,118.2
		C151.8,184,195.3,236.9,249.1,236.9z"/>
	<path fill="#131F2A" d="M65.3,417.4C65.3,413.4,65.2,416.3,65.3,417.4L65.3,417.4z"/>
	<path fill="#131F2A" d="M432.9,420.5C432.9,419.4,432.9,413,432.9,420.5L432.9,420.5z"/>
	<path fill="#131F2A" d="M432.7,412.6C430.9,298.9,416,266.5,302.4,246c0,0-16,20.4-53.3,20.4S195.8,246,195.8,246
		C83.4,266.3,67.6,298.2,65.6,408.9c-0.2,9-0.2,9.5-0.3,8.5c0,2,0,5.6,0,11.9c0,0,27.1,54.5,183.8,54.5
		c156.7,0,183.8-54.5,183.8-54.5c0-4.1,0-6.9,0-8.8C432.8,421.2,432.8,419.9,432.7,412.6z"/>
</g>
</svg>
